<svg width="86" height="44" viewBox="0 0 86 44" fill="none" xmlns="http://www.w3.org/2000/svg">
<path d="M0 5.62607C0 2.51888 2.51887 0 5.62606 0H85.6034V43.1332H0V5.62607Z" fill="#1BC681"/>
<path d="M63.8683 13.9626H69.5823V23.0171C69.5823 24.321 69.9119 25.4125 70.5712 26.2916C71.2452 27.156 72.073 27.5882 73.0546 27.5882C74.0948 27.5882 74.9666 27.1707 75.6698 26.3356C76.3877 25.4858 76.7467 24.4236 76.7467 23.1489V13.9626H82.4607V24.951C82.4607 27.2806 81.5669 29.2365 79.7795 30.8188C78.0067 32.3865 75.7944 33.1704 73.1425 33.1704C70.3295 33.1704 68.0805 32.3792 66.3956 30.7969C64.7107 29.2145 63.8683 27.1121 63.8683 24.4895V13.9626Z" fill="white"/>
<path d="M59.9344 24.7093H46.4626C46.5359 25.9253 46.9315 26.9143 47.6494 27.6761C48.382 28.438 49.2317 28.8189 50.1987 28.8189C51.9275 28.8189 53.2828 28.0351 54.2644 26.4674L59.429 28.1816C57.5097 31.5367 54.5281 33.2143 50.4844 33.2143C47.5102 33.2143 45.144 32.3132 43.3859 30.5111C41.6277 28.709 40.7487 26.2843 40.7487 23.2368C40.7487 20.497 41.6717 18.1968 43.5178 16.3361C45.3785 14.4754 47.664 13.545 50.3745 13.545C53.0996 13.545 55.3706 14.5267 57.1873 16.4899C59.0187 18.4385 59.9344 20.878 59.9344 23.8082V24.7093ZM46.5066 20.9293H54.1106C53.5831 18.5704 52.3744 17.391 50.4844 17.391C49.4002 17.391 48.4992 17.6987 47.7813 18.314C47.078 18.9294 46.6531 19.8011 46.5066 20.9293Z" fill="white"/>
<path d="M12.6184 13.9187V16.9295C12.8821 16.7537 13.2703 16.4167 13.7831 15.9185C14.2959 15.4204 14.7867 15.0028 15.2556 14.6659C15.7391 14.3142 16.3105 14.0359 16.9698 13.8308C17.6437 13.611 18.2517 13.5011 18.7938 13.5011C19.6583 13.5011 20.5959 13.8088 21.6069 14.4241C22.6178 15.0248 23.4602 16.1017 24.1342 17.6547C25.3063 16.1603 26.4491 15.0981 27.5626 14.4681C28.6907 13.8234 29.7383 13.5011 30.7053 13.5011C32.4195 13.5011 33.8699 14.2117 35.0567 15.6328C36.2434 17.0394 36.8368 18.7755 36.8368 20.8414V32.8187H31.2107V22.3358C31.2107 21.2955 30.925 20.4238 30.3536 19.7205C29.7822 19.0026 29.0936 18.6437 28.2878 18.6437C27.3208 18.6437 26.4857 19.0466 25.7825 19.8524C25.0792 20.6582 24.7276 21.6179 24.7276 22.7314V32.8187H19.1455V22.5995C19.1455 21.5007 18.8524 20.5776 18.2664 19.8304C17.695 19.0686 16.9991 18.6876 16.1786 18.6876C15.2116 18.6876 14.3765 19.1052 13.6732 19.9403C12.97 20.7608 12.6184 21.7497 12.6184 22.9072V32.8187H6.94833V13.9187H12.6184Z" fill="white"/>
</svg>
