<svg width="20" height="20" viewBox="0 0 20 20" fill="none" xmlns="http://www.w3.org/2000/svg">
<path fill-rule="evenodd" clip-rule="evenodd" d="M7.86025 3.4265C8.65276 1.5245 11.3472 1.5245 12.1397 3.4265C12.2944 3.79776 12.7317 3.96942 13.1017 3.7986L13.1018 3.79858C15.0702 2.89007 17.11 4.92969 16.2013 6.89821L15.4732 6.56212L16.2013 6.89821C16.0305 7.26838 16.2022 7.70555 16.5734 7.86025L16.265 8.60054L16.5734 7.86025C18.4755 8.65275 18.4755 11.3473 16.5734 12.1397C16.2022 12.2945 16.0305 12.7317 16.2013 13.1018L15.5005 13.4252L16.2013 13.1018C17.1099 15.0703 15.0703 17.1099 13.1017 16.2014L13.4117 15.5299L13.1017 16.2014C12.7317 16.0305 12.2944 16.2022 12.1397 16.5734C11.3472 18.4755 8.65273 18.4755 7.86024 16.5734L8.60053 16.265L7.86024 16.5734C7.70554 16.2022 7.26835 16.0305 6.89819 16.2014L6.56211 15.4732L6.89819 16.2014C4.92967 17.11 2.89007 15.0702 3.79858 13.1018L3.7986 13.1017C3.96942 12.7317 3.79776 12.2944 3.4265 12.1397C1.5245 11.3472 1.5245 8.65276 3.42649 7.86025C3.79776 7.70555 3.96943 7.26835 3.79859 6.8982L3.79858 6.89819C2.89006 4.92971 4.92971 2.89006 6.89819 3.79859L6.89819 3.79859C7.26835 3.96943 7.70555 3.79776 7.86025 3.4265ZM10.6592 4.04342C10.415 3.45748 9.58496 3.45748 9.34082 4.04342L9.34082 4.04343C8.83419 5.25928 7.41698 5.80459 6.22604 5.25492L6.56211 4.52675L6.22604 5.25492C5.61153 4.9713 4.9713 5.61153 5.25492 6.22604L4.52675 6.56212L5.25492 6.22604C5.80459 7.41699 5.25927 8.83419 4.04343 9.34082L4.04342 9.34083C3.45748 9.58497 3.45748 10.415 4.04342 10.6592L4.04343 10.6592C5.25927 11.1658 5.8046 12.583 5.25491 13.774C4.9713 14.3885 5.61156 15.0287 6.22602 14.745L6.22604 14.745C7.41698 14.1954 8.83419 14.7407 9.34082 15.9565L9.34083 15.9566C9.58497 16.5425 10.415 16.5425 10.6592 15.9566L10.6592 15.9565C11.1658 14.7407 12.583 14.1954 13.7739 14.745L13.4378 15.4732L13.7739 14.745C14.3884 15.0287 15.0287 14.3885 14.745 13.7739C14.1953 12.5831 14.7407 11.1658 15.9565 10.6592L15.9565 10.6592C16.5425 10.415 16.5425 9.58498 15.9565 9.34083L15.9565 9.34082C14.7407 8.83419 14.1954 7.41699 14.745 6.22604L14.745 6.22602C15.0286 5.61157 14.3885 4.97131 13.7739 5.25491C12.583 5.80461 11.1658 5.25927 10.6592 4.04343L10.6592 4.04342Z" fill="#484848"/>
<path fill-rule="evenodd" clip-rule="evenodd" d="M10 8.39603C9.11416 8.39603 8.39608 9.11411 8.39608 9.99999C8.39608 10.8859 9.11416 11.604 10 11.604C10.8859 11.604 11.604 10.8859 11.604 9.99999C11.604 9.11411 10.8859 8.39603 10 8.39603ZM6.79211 9.99999C6.79211 8.22826 8.22831 6.79206 10 6.79206C11.7718 6.79206 13.208 8.22826 13.208 9.99999C13.208 11.7717 11.7718 13.2079 10 13.2079C8.22831 13.2079 6.79211 11.7717 6.79211 9.99999Z" fill="#484848"/>
</svg>
