<svg width="200" height="44" viewBox="0 0 200 44" fill="none" xmlns="http://www.w3.org/2000/svg">
<path d="M85.6034 39.3824H200V43.1332H85.6034V39.3824Z" fill="white"/>
<path fill-rule="evenodd" clip-rule="evenodd" d="M5.62606 0C2.51887 0 0 2.51888 0 5.62607V43.1332H85.6034V0H5.62606ZM12.6184 13.9186V16.9295C12.8821 16.7537 13.2703 16.4167 13.7831 15.9185C14.2959 15.4204 14.7867 15.0028 15.2556 14.6659C15.7391 14.3142 16.3105 14.0359 16.9698 13.8307C17.6437 13.611 18.2517 13.5011 18.7938 13.5011C19.6583 13.5011 20.5959 13.8088 21.6069 14.4241C22.6178 15.0248 23.4602 16.1017 24.1342 17.6547C25.3063 16.1603 26.4491 15.0981 27.5626 14.4681C28.6907 13.8234 29.7383 13.5011 30.7053 13.5011C32.4195 13.5011 33.8699 14.2117 35.0567 15.6328C36.2434 17.0394 36.8368 18.7755 36.8368 20.8413V32.8187H31.2107V22.3358C31.2107 21.2955 30.925 20.4238 30.3536 19.7205C29.7822 19.0026 29.0936 18.6437 28.2878 18.6437C27.3208 18.6437 26.4857 19.0466 25.7825 19.8524C25.0792 20.6582 24.7276 21.6179 24.7276 22.7313V32.8187H19.1455V22.5995C19.1455 21.5006 18.8524 20.5776 18.2664 19.8304C17.695 19.0685 16.9991 18.6876 16.1786 18.6876C15.2116 18.6876 14.3765 19.1052 13.6732 19.9403C12.97 20.7608 12.6184 21.7497 12.6184 22.9072V32.8187H6.94834V13.9186H12.6184ZM46.4626 24.7093H59.9344V23.8082C59.9344 20.878 59.0187 18.4385 57.1873 16.4899C55.3706 14.5267 53.0996 13.545 50.3745 13.545C47.664 13.545 45.3785 14.4754 43.5178 16.3361C41.6717 18.1968 40.7487 20.497 40.7487 23.2368C40.7487 26.2843 41.6278 28.709 43.3859 30.5111C45.144 32.3132 47.5102 33.2143 50.4844 33.2143C54.5281 33.2143 57.5097 31.5367 59.429 28.1816L54.2644 26.4674C53.2828 28.0351 51.9275 28.8189 50.1987 28.8189C49.2317 28.8189 48.382 28.438 47.6494 27.6761C46.9315 26.9143 46.5359 25.9253 46.4626 24.7093ZM54.1106 20.9293H46.5066C46.6531 19.8011 47.078 18.9294 47.7813 18.314C48.4992 17.6987 49.4002 17.391 50.4844 17.391C52.3744 17.391 53.5831 18.5704 54.1106 20.9293ZM69.5823 13.9626H63.8683V24.4895C63.8683 27.1121 64.7107 29.2145 66.3956 30.7968C68.0805 32.3792 70.3295 33.1703 73.1425 33.1703C75.7944 33.1703 78.0067 32.3865 79.7795 30.8188C81.5669 29.2365 82.4607 27.2806 82.4607 24.951V13.9626H76.7467V23.1489C76.7467 24.4236 76.3877 25.4858 75.6698 26.3355C74.9666 27.1707 74.0948 27.5882 73.0546 27.5882C72.073 27.5882 71.2452 27.156 70.5712 26.2916C69.9119 25.4125 69.5823 24.321 69.5823 23.017V13.9626Z" fill="white"/>
<path d="M177.554 23.4126C177.554 20.497 178.485 18.1162 180.345 16.2702C182.206 14.4241 184.594 13.5011 187.51 13.5011C190.22 13.5011 192.491 14.4461 194.323 16.3361C196.169 18.2115 197.092 20.541 197.092 23.3247C197.092 26.1671 196.169 28.5259 194.323 30.4013C192.491 32.2766 190.191 33.2143 187.422 33.2143C184.301 33.2143 181.876 32.2253 180.148 30.2474C178.419 28.2549 177.554 25.9766 177.554 23.4126ZM191.554 23.4126C191.554 22.138 191.136 21.0245 190.301 20.0722C189.466 19.1198 188.491 18.6437 187.378 18.6437C186.221 18.6437 185.224 19.0905 184.389 19.9842C183.554 20.878 183.136 21.9475 183.136 23.1929C183.136 24.5554 183.547 25.7129 184.367 26.6652C185.202 27.6175 186.206 28.0937 187.378 28.0937C188.491 28.0937 189.466 27.6322 190.301 26.7092C191.136 25.7715 191.554 24.6726 191.554 23.4126Z" fill="white"/>
<path d="M173.577 26.2916V31.9177C171.643 32.7821 170.038 33.2143 168.764 33.2143C165.921 33.2143 163.548 32.2766 161.643 30.4013C159.738 28.5259 158.786 26.1817 158.786 23.3687C158.786 20.541 159.665 18.1968 161.423 16.3361C163.196 14.4754 165.438 13.545 168.148 13.545C170.038 13.545 171.87 13.9846 173.642 14.8636V20.182C172.002 19.3909 170.5 18.9953 169.137 18.9953C167.877 18.9953 166.859 19.3835 166.082 20.1601C165.321 20.9219 164.94 21.9329 164.94 23.1929C164.94 24.4382 165.321 25.4491 166.082 26.2257C166.844 26.9875 167.848 27.3685 169.093 27.3685C170.221 27.3685 171.716 27.0095 173.577 26.2916Z" fill="white"/>
<path d="M142.018 13.9186V16.1603C143.937 14.3582 145.952 13.4571 148.061 13.4571C149.864 13.4571 151.351 14.197 152.523 15.6768C153.709 17.1566 154.303 19.0466 154.303 21.3468V32.8187H148.589V22.2479C148.589 21.1637 148.289 20.248 147.688 19.5008C147.102 18.7535 146.384 18.3799 145.534 18.3799C144.509 18.3799 143.666 18.8561 143.007 19.8084C142.347 20.7461 142.018 21.9622 142.018 23.4566V32.8187H136.392V13.9186H142.018Z" fill="white"/>
<path d="M124.722 32.8187V29.5881H124.634C123.755 30.8481 122.869 31.7638 121.975 32.3352C121.081 32.892 119.975 33.1703 118.656 33.1703C116.444 33.1703 114.561 32.218 113.008 30.3133C111.455 28.4087 110.679 26.0938 110.679 23.3687C110.679 20.6729 111.507 18.3653 113.162 16.446C114.818 14.512 116.781 13.545 119.052 13.545C120.136 13.545 121.111 13.7868 121.975 14.2703C122.839 14.7538 123.755 15.523 124.722 16.5778V13.9626H130.348V32.8187H124.722ZM120.59 19.1711C119.477 19.1711 118.547 19.618 117.799 20.5117C117.052 21.3908 116.679 22.5043 116.679 23.8522C116.679 25.1122 117.03 26.1304 117.733 26.9069C118.451 27.6688 119.389 28.0497 120.546 28.0497C121.66 28.0497 122.612 27.6102 123.403 26.7311C124.195 25.8374 124.59 24.7605 124.59 23.5005C124.59 22.3284 124.195 21.3175 123.403 20.4677C122.612 19.6033 121.675 19.1711 120.59 19.1711Z" fill="white"/>
<path d="M88.2626 3.43571H93.8886V16.4899C95.5589 14.5267 97.4635 13.545 99.6026 13.545C101.859 13.545 103.807 14.5193 105.448 16.468C107.104 18.4166 107.932 20.7608 107.932 23.5005C107.932 26.0938 107.119 28.3574 105.492 30.2914C103.866 32.2107 101.976 33.1703 99.8224 33.1703C98.7382 33.1703 97.7346 32.8993 96.8115 32.3572C95.9032 31.8151 94.9142 30.9507 93.8447 29.7639V32.8187H88.2626V3.43571ZM97.9323 19.1711C96.8189 19.1711 95.8885 19.574 95.1413 20.3798C94.3941 21.171 94.0205 22.2405 94.0205 23.5884C94.0205 24.8778 94.4087 25.9473 95.1852 26.7971C95.9764 27.6322 96.9654 28.0497 98.1521 28.0497C99.2363 28.0497 100.137 27.6395 100.855 26.819C101.573 25.9839 101.932 24.9364 101.932 23.6764C101.932 22.4457 101.537 21.3908 100.745 20.5117C99.9689 19.618 99.0312 19.1711 97.9323 19.1711Z" fill="white"/>
</svg>
