<svg width="201" height="44" viewBox="0 0 201 44" fill="none" xmlns="http://www.w3.org/2000/svg">
<path d="M86.4833 39.3825H200.88V43.1332H86.4833V39.3825Z" fill="white"/>
<path d="M0.879883 5.62607C0.879883 2.51888 3.39876 0 6.50595 0H86.4832V43.1332H0.879883V5.62607Z" fill="#1BC681"/>
<path d="M64.7482 13.9626H70.4621V23.0171C70.4621 24.321 70.7918 25.4125 71.4511 26.2916C72.1251 27.156 72.9528 27.5882 73.9345 27.5882C74.9747 27.5882 75.8465 27.1707 76.5497 26.3356C77.2676 25.4858 77.6266 24.4236 77.6266 23.1489V13.9626H83.3406V24.951C83.3406 27.2806 82.4468 29.2365 80.6594 30.8188C78.8866 32.3865 76.6743 33.1703 74.0224 33.1703C71.2094 33.1703 68.9604 32.3792 67.2755 30.7968C65.5906 29.2145 64.7482 27.1121 64.7482 24.4895V13.9626Z" fill="white"/>
<path d="M60.8143 24.7093H47.3425C47.4158 25.9253 47.8114 26.9143 48.5293 27.6761C49.2618 28.438 50.1116 28.8189 51.0786 28.8189C52.8074 28.8189 54.1626 28.0351 55.1443 26.4674L60.3088 28.1816C58.3895 31.5367 55.408 33.2143 51.3643 33.2143C48.3901 33.2143 46.0239 32.3132 44.2658 30.5111C42.5076 28.709 41.6285 26.2843 41.6285 23.2368C41.6285 20.497 42.5516 18.1968 44.3976 16.3361C46.2583 14.4754 48.5439 13.545 51.2544 13.545C53.9795 13.545 56.2504 14.5267 58.0672 16.4899C59.8986 18.4385 60.8143 20.878 60.8143 23.8082V24.7093ZM47.3865 20.9293H54.9904C54.463 18.5704 53.2543 17.391 51.3643 17.391C50.2801 17.391 49.379 17.6987 48.6611 18.314C47.9579 18.9294 47.533 19.8011 47.3865 20.9293Z" fill="white"/>
<path d="M13.4983 13.9187V16.9295C13.762 16.7537 14.1502 16.4167 14.663 15.9185C15.1758 15.4204 15.6666 15.0028 16.1355 14.6659C16.619 14.3142 17.1904 14.0359 17.8497 13.8307C18.5236 13.611 19.1317 13.5011 19.6737 13.5011C20.5382 13.5011 21.4758 13.8088 22.4868 14.4241C23.4977 15.0248 24.3402 16.1017 25.0141 17.6547C26.1862 16.1603 27.329 15.0981 28.4425 14.4681C29.5706 13.8234 30.6182 13.5011 31.5852 13.5011C33.2994 13.5011 34.7498 14.2117 35.9366 15.6328C37.1233 17.0394 37.7167 18.7755 37.7167 20.8413V32.8187H32.0907V22.3358C32.0907 21.2955 31.805 20.4238 31.2336 19.7205C30.6622 19.0026 29.9736 18.6437 29.1677 18.6437C28.2008 18.6437 27.3656 19.0466 26.6624 19.8524C25.9591 20.6582 25.6075 21.6179 25.6075 22.7314V32.8187H20.0254V22.5995C20.0254 21.5007 19.7324 20.5776 19.1463 19.8304C18.5749 19.0686 17.879 18.6876 17.0585 18.6876C16.0915 18.6876 15.2564 19.1052 14.5532 19.9403C13.8499 20.7608 13.4983 21.7497 13.4983 22.9072V32.8187H7.82825V13.9187H13.4983Z" fill="white"/>
<path d="M178.434 23.4126C178.434 20.497 179.365 18.1162 181.225 16.2702C183.086 14.4241 185.474 13.5011 188.39 13.5011C191.1 13.5011 193.371 14.4461 195.203 16.3361C197.049 18.2115 197.972 20.541 197.972 23.3247C197.972 26.1671 197.049 28.5259 195.203 30.4013C193.371 32.2766 191.071 33.2143 188.302 33.2143C185.181 33.2143 182.756 32.2253 181.027 30.2474C179.299 28.2549 178.434 25.9766 178.434 23.4126ZM192.433 23.4126C192.433 22.138 192.016 21.0245 191.181 20.0722C190.346 19.1198 189.371 18.6437 188.258 18.6437C187.1 18.6437 186.104 19.0905 185.269 19.9843C184.434 20.878 184.016 21.9475 184.016 23.1929C184.016 24.5554 184.427 25.7129 185.247 26.6652C186.082 27.6175 187.086 28.0937 188.258 28.0937C189.371 28.0937 190.346 27.6322 191.181 26.7092C192.016 25.7715 192.433 24.6726 192.433 23.4126Z" fill="#1BC681"/>
<path d="M174.456 26.2916V31.9177C172.522 32.7821 170.918 33.2143 169.643 33.2143C166.801 33.2143 164.428 32.2766 162.523 30.4013C160.618 28.5259 159.666 26.1817 159.666 23.3687C159.666 20.541 160.545 18.1968 162.303 16.3361C164.076 14.4754 166.318 13.545 169.028 13.545C170.918 13.545 172.75 13.9846 174.522 14.8637V20.182C172.881 19.3909 171.38 18.9953 170.017 18.9953C168.757 18.9953 167.739 19.3836 166.962 20.1601C166.2 20.9219 165.82 21.9329 165.82 23.1929C165.82 24.4382 166.2 25.4492 166.962 26.2257C167.724 26.9875 168.728 27.3685 169.973 27.3685C171.101 27.3685 172.596 27.0095 174.456 26.2916Z" fill="#1BC681"/>
<path d="M142.898 13.9187V16.1603C144.817 14.3582 146.832 13.4571 148.941 13.4571C150.744 13.4571 152.231 14.197 153.403 15.6768C154.589 17.1566 155.183 19.0466 155.183 21.3468V32.8187H149.469V22.2479C149.469 21.1637 149.169 20.248 148.568 19.5008C147.982 18.7536 147.264 18.3799 146.414 18.3799C145.388 18.3799 144.546 18.8561 143.887 19.8084C143.227 20.7461 142.898 21.9622 142.898 23.4566V32.8187H137.272V13.9187H142.898Z" fill="#1BC681"/>
<path d="M125.602 32.8187V29.5881H125.514C124.635 30.8481 123.749 31.7638 122.855 32.3352C121.961 32.892 120.855 33.1703 119.536 33.1703C117.324 33.1703 115.441 32.218 113.888 30.3134C112.335 28.4087 111.559 26.0938 111.559 23.3687C111.559 20.6729 112.387 18.3653 114.042 16.446C115.698 14.512 117.661 13.545 119.932 13.545C121.016 13.545 121.99 13.7868 122.855 14.2703C123.719 14.7538 124.635 15.523 125.602 16.5778V13.9626H131.228V32.8187H125.602ZM121.47 19.1711C120.357 19.1711 119.427 19.618 118.679 20.5117C117.932 21.3908 117.559 22.5043 117.559 23.8522C117.559 25.1122 117.91 26.1304 118.613 26.9069C119.331 27.6688 120.269 28.0497 121.426 28.0497C122.54 28.0497 123.492 27.6102 124.283 26.7311C125.075 25.8374 125.47 24.7605 125.47 23.5005C125.47 22.3284 125.075 21.3175 124.283 20.4677C123.492 19.6033 122.555 19.1711 121.47 19.1711Z" fill="#1BC681"/>
<path d="M89.1425 3.43571H94.7685V16.4899C96.4388 14.5267 98.3434 13.545 100.482 13.545C102.739 13.545 104.687 14.5193 106.328 16.468C107.984 18.4166 108.812 20.7608 108.812 23.5005C108.812 26.0938 107.999 28.3574 106.372 30.2914C104.746 32.2107 102.856 33.1703 100.702 33.1703C99.6181 33.1703 98.6145 32.8993 97.6914 32.3572C96.7831 31.8151 95.7941 30.9507 94.7246 29.7639V32.8187H89.1425V3.43571ZM98.8123 19.1711C97.6988 19.1711 96.7684 19.574 96.0212 20.3798C95.274 21.171 94.9004 22.2405 94.9004 23.5884C94.9004 24.8778 95.2886 25.9473 96.0652 26.7971C96.8563 27.6322 97.8453 28.0497 99.032 28.0497C100.116 28.0497 101.017 27.6395 101.735 26.819C102.453 25.9839 102.812 24.9364 102.812 23.6764C102.812 22.4457 102.416 21.3908 101.625 20.5117C100.849 19.618 99.9111 19.1711 98.8123 19.1711Z" fill="#1BC681"/>
</svg>
