<svg width="240" height="141" viewBox="0 0 240 141" fill="none" xmlns="http://www.w3.org/2000/svg">
<rect x="-0.00976562" y="0.133179" width="240" height="140" rx="8.70091" fill="url(#paint0_linear_26_14127)"/>
<path d="M46.2512 23.8368H87.7243V25.1965H46.2512V23.8368Z" fill="white"/>
<path fill-rule="evenodd" clip-rule="evenodd" d="M17.2565 9.55914C16.13 9.55914 15.2168 10.4723 15.2168 11.5988V25.1965H46.2512V9.55914H17.2565ZM19.7915 14.6052V15.6967C19.8871 15.633 20.0279 15.5108 20.2138 15.3302C20.3997 15.1496 20.5776 14.9983 20.7476 14.8761C20.9229 14.7486 21.13 14.6477 21.369 14.5733C21.6134 14.4936 21.8338 14.4538 22.0303 14.4538C22.3437 14.4538 22.6837 14.5654 23.0502 14.7884C23.4167 15.0062 23.7221 15.3966 23.9664 15.9597C24.3913 15.4179 24.8057 15.0328 25.2093 14.8044C25.6183 14.5707 25.9981 14.4538 26.3487 14.4538C26.9701 14.4538 27.496 14.7114 27.9262 15.2267C28.3565 15.7366 28.5716 16.366 28.5716 17.1149V21.4572H26.5319V17.6567C26.5319 17.2796 26.4283 16.9635 26.2212 16.7086C26.014 16.4483 25.7644 16.3182 25.4723 16.3182C25.1217 16.3182 24.8189 16.4643 24.564 16.7564C24.309 17.0485 24.1815 17.3964 24.1815 17.8001V21.4572H22.1578V17.7523C22.1578 17.354 22.0516 17.0193 21.8391 16.7484C21.632 16.4722 21.3797 16.3341 21.0822 16.3341C20.7316 16.3341 20.4289 16.4855 20.1739 16.7883C19.919 17.0857 19.7915 17.4443 19.7915 17.8639V21.4572H17.7359V14.6052H19.7915ZM32.0613 18.5172H36.9453V18.1905C36.9453 17.1282 36.6134 16.2438 35.9494 15.5374C35.2908 14.8256 34.4675 14.4697 33.4795 14.4697C32.4969 14.4697 31.6682 14.807 30.9937 15.4816C30.3244 16.1562 29.9898 16.9901 29.9898 17.9834C29.9898 19.0882 30.3085 19.9673 30.9459 20.6206C31.5833 21.2739 32.4411 21.6006 33.5193 21.6006C34.9853 21.6006 36.0663 20.9924 36.7621 19.776L34.8897 19.1546C34.5339 19.7229 34.0425 20.0071 33.4158 20.0071C33.0652 20.0071 32.7571 19.869 32.4915 19.5928C32.2313 19.3166 32.0879 18.9581 32.0613 18.5172ZM34.834 17.1468H32.0772C32.1304 16.7378 32.2844 16.4218 32.5393 16.1987C32.7996 15.9756 33.1263 15.864 33.5193 15.864C34.2045 15.864 34.6427 16.2916 34.834 17.1468ZM40.443 14.6211H38.3715V18.4375C38.3715 19.3883 38.6769 20.1505 39.2878 20.7242C39.8986 21.2978 40.7139 21.5847 41.7338 21.5847C42.6952 21.5847 43.4972 21.3005 44.1399 20.7322C44.7879 20.1585 45.112 19.4494 45.112 18.6049V14.6211H43.0404V17.9515C43.0404 18.4136 42.9103 18.7987 42.65 19.1068C42.3951 19.4096 42.079 19.5609 41.7019 19.5609C41.346 19.5609 41.0459 19.4043 40.8016 19.0909C40.5626 18.7722 40.443 18.3765 40.443 17.9037V14.6211Z" fill="white"/>
<path d="M79.5869 18.0471C79.5869 16.9901 79.9242 16.127 80.5988 15.4577C81.2734 14.7884 82.1391 14.4538 83.1962 14.4538C84.1788 14.4538 85.0021 14.7964 85.6661 15.4816C86.3353 16.1615 86.67 17.006 86.67 18.0152C86.67 19.0457 86.3353 19.9009 85.6661 20.5807C85.0021 21.2606 84.1682 21.6006 83.1643 21.6006C82.0329 21.6006 81.1538 21.242 80.5271 20.525C79.9003 19.8026 79.5869 18.9766 79.5869 18.0471ZM84.6622 18.0471C84.6622 17.585 84.5108 17.1813 84.208 16.8361C83.9053 16.4908 83.552 16.3182 83.1484 16.3182C82.7287 16.3182 82.3675 16.4802 82.0648 16.8042C81.762 17.1282 81.6106 17.5159 81.6106 17.9674C81.6106 18.4614 81.7594 18.881 82.0568 19.2263C82.3596 19.5715 82.7234 19.7442 83.1484 19.7442C83.552 19.7442 83.9053 19.5769 84.208 19.2422C84.5108 18.9023 84.6622 18.5039 84.6622 18.0471Z" fill="white"/>
<path d="M78.1448 19.0908V21.1305C77.4437 21.4439 76.862 21.6006 76.3999 21.6006C75.3695 21.6006 74.509 21.2606 73.8185 20.5807C73.128 19.9009 72.7827 19.051 72.7827 18.0312C72.7827 17.006 73.1014 16.1562 73.7388 15.4816C74.3815 14.807 75.1942 14.4697 76.1768 14.4697C76.862 14.4697 77.526 14.6291 78.1687 14.9478V16.8759C77.5738 16.5891 77.0294 16.4456 76.5354 16.4456C76.0786 16.4456 75.7094 16.5864 75.4279 16.8679C75.1517 17.1441 75.0136 17.5106 75.0136 17.9674C75.0136 18.4189 75.1517 18.7854 75.4279 19.0669C75.7041 19.3431 76.0679 19.4812 76.5194 19.4812C76.9284 19.4812 77.4702 19.3511 78.1448 19.0908Z" fill="white"/>
<path d="M66.7036 14.6052V15.4179C67.3994 14.7645 68.1298 14.4379 68.8946 14.4379C69.548 14.4379 70.0871 14.7061 70.512 15.2426C70.9423 15.779 71.1574 16.4642 71.1574 17.2982V21.4572H69.0859V17.6248C69.0859 17.2318 68.977 16.8998 68.7592 16.6289C68.5467 16.358 68.2865 16.2226 67.9784 16.2226C67.6066 16.2226 67.3012 16.3952 67.0621 16.7405C66.8231 17.0804 66.7036 17.5213 66.7036 18.063V21.4572H64.6639V14.6052H66.7036Z" fill="white"/>
<path d="M60.4332 21.4572V20.2859H60.4014C60.0827 20.7427 59.7613 21.0747 59.4373 21.2819C59.1133 21.4837 58.7123 21.5846 58.2342 21.5846C57.4322 21.5846 56.7496 21.2394 56.1866 20.5489C55.6236 19.8584 55.342 19.0191 55.342 18.0312C55.342 17.0538 55.6421 16.2172 56.2424 15.5214C56.8426 14.8203 57.5543 14.4697 58.3776 14.4697C58.7707 14.4697 59.1239 14.5574 59.4373 14.7327C59.7507 14.9079 60.0827 15.1868 60.4332 15.5692V14.6211H62.4729V21.4572H60.4332ZM58.9353 16.5094C58.5317 16.5094 58.1944 16.6714 57.9235 16.9954C57.6526 17.3141 57.5171 17.7178 57.5171 18.2064C57.5171 18.6632 57.6446 19.0324 57.8996 19.3139C58.1599 19.5901 58.4998 19.7282 58.9194 19.7282C59.3231 19.7282 59.6684 19.5689 59.9552 19.2502C60.242 18.9262 60.3854 18.5358 60.3854 18.079C60.3854 17.654 60.242 17.2875 59.9552 16.9795C59.6684 16.6661 59.3284 16.5094 58.9353 16.5094Z" fill="white"/>
<path d="M47.2152 10.8047H49.2549V15.5374C49.8604 14.8256 50.5509 14.4697 51.3264 14.4697C52.1444 14.4697 52.8508 14.823 53.4457 15.5294C54.0459 16.2358 54.3461 17.0857 54.3461 18.079C54.3461 19.0191 54.0513 19.8398 53.4617 20.5409C52.8721 21.2367 52.1869 21.5846 51.4061 21.5846C51.013 21.5846 50.6492 21.4864 50.3145 21.2898C49.9852 21.0933 49.6267 20.7799 49.2389 20.3497V21.4572H47.2152V10.8047ZM50.7209 16.5094C50.3172 16.5094 49.9799 16.6555 49.709 16.9476C49.4381 17.2344 49.3027 17.6222 49.3027 18.1108C49.3027 18.5783 49.4434 18.966 49.7249 19.2741C50.0118 19.5769 50.3703 19.7282 50.8006 19.7282C51.1936 19.7282 51.5203 19.5795 51.7805 19.2821C52.0408 18.9793 52.1709 18.5995 52.1709 18.1427C52.1709 17.6965 52.0275 17.3141 51.7407 16.9954C51.4592 16.6714 51.1192 16.5094 50.7209 16.5094Z" fill="white"/>
<path fill-rule="evenodd" clip-rule="evenodd" d="M16.444 56.7665C16.4506 56.7666 16.4572 56.7667 16.4638 56.7667H32.3803L16.444 56.7665ZM36.4763 40.0314C36.4689 40.0313 36.4615 40.0312 36.4541 40.0312H16.4638L36.4763 40.0314ZM36.7871 56.2725L26.5037 56.2723V51.546H29.0554L31.3031 53.7937C31.3495 53.8401 31.4122 53.8662 31.4777 53.8662L37.7001 53.8664V55.3595C37.7001 55.863 37.2905 56.2725 36.7871 56.2725ZM15.2167 55.3593V53.8662H21.0372C21.1028 53.8662 21.1654 53.8401 21.2118 53.7937L23.4595 51.546H26.0106V56.2723H16.1303C15.6268 56.2723 15.2167 55.8628 15.2167 55.3593ZM37.7001 53.3722L31.5798 53.372L29.4046 51.1968V48.6451L37.7001 48.6453V53.3722ZM20.934 53.372H15.2167V48.6451H23.1098V51.1968L20.934 53.372ZM28.9104 51.0518H23.6034V45.7448H28.9104V51.0518ZM37.7001 48.1522L29.4046 48.1521V45.6004L31.5798 43.4246L37.7001 43.4247V48.1522ZM23.1098 48.1521H15.2167V43.4246H20.9345L23.1098 45.601V48.1521ZM29.0554 45.2518H26.5037V40.5243L36.7871 40.5244C37.2905 40.5244 37.7001 40.9345 37.7001 41.438V42.9317L31.4777 42.9315C31.4122 42.9315 31.3495 42.9576 31.3031 43.004L29.0554 45.2518ZM26.0101 45.2518H23.459L21.2112 43.004C21.1648 42.957 21.1022 42.9315 21.0366 42.9315H15.2167V41.4379C15.2167 40.9344 15.6268 40.5243 16.1303 40.5243H26.0101V45.2518Z" fill="#CD9834"/>
<path fill-rule="evenodd" clip-rule="evenodd" d="M66.9477 40.2837C67.4252 40.045 68.0059 40.2385 68.2447 40.7161C69.3799 42.9864 69.9903 45.6495 69.9903 48.3992C69.9903 51.1577 69.3762 53.7168 68.2522 56.067C68.0218 56.5487 67.4446 56.7524 66.9629 56.5221C66.4812 56.2917 66.2775 55.7145 66.5079 55.2328C67.5108 53.1358 68.0568 50.8611 68.0568 48.3992C68.0568 45.9283 67.507 43.5642 66.5153 41.5808C66.2765 41.1032 66.4701 40.5225 66.9477 40.2837ZM63.507 41.8119C63.9949 41.5951 64.5663 41.8148 64.7831 42.3027C65.6047 44.1514 66.1232 46.3148 66.1232 48.3992C66.1232 50.4904 65.6016 52.5575 64.7831 54.3991C64.5663 54.8871 63.9949 55.1068 63.507 54.8899C63.0191 54.6731 62.7994 54.1018 63.0162 53.6139C63.7446 51.9751 64.1897 50.1752 64.1897 48.3992C64.1897 46.6166 63.7414 44.7197 63.0162 43.088C62.7994 42.6001 63.0191 42.0288 63.507 41.8119ZM59.987 43.5707C60.4646 43.3319 61.0453 43.5254 61.2841 44.003C61.943 45.3208 62.2563 46.9242 62.2563 48.3991C62.2563 49.8906 61.9366 51.3825 61.2972 52.7679C61.0734 53.2527 60.4991 53.4643 60.0143 53.2406C59.5295 53.0168 59.3179 52.4425 59.5416 51.9577C60.0623 50.8295 60.3227 49.6145 60.3227 48.3991C60.3227 47.167 60.0559 45.8701 59.5547 44.8677C59.3159 44.3901 59.5095 43.8094 59.987 43.5707ZM56.5581 45.1905C57.0488 44.9801 57.6172 45.2074 57.8275 45.6982C58.1657 46.4872 58.3891 47.4864 58.3891 48.3992C58.3891 49.3282 58.1585 50.2315 57.8275 51.0036C57.6172 51.4944 57.0489 51.7217 56.5581 51.5114C56.0674 51.3011 55.84 50.7327 56.0503 50.242C56.2995 49.6607 56.4556 49.0171 56.4556 48.3992C56.4556 47.7653 56.2923 47.0243 56.0503 46.4599C55.84 45.9691 56.0673 45.4008 56.5581 45.1905Z" fill="white"/>
<path d="M16.5879 85.3023V83.9101H19.4012V76.0793L16.5734 78.182V76.4854L18.9952 74.7162H20.9674V83.9101H23.2441V85.3023H16.5879ZM25.2542 85.3023V83.7506L28.5315 80.3718C29.0342 79.8497 29.4016 79.3808 29.6336 78.9651C29.8753 78.5397 29.9962 78.1192 29.9962 77.7035C29.9962 77.1621 29.8463 76.7367 29.5466 76.4274C29.2566 76.118 28.8554 75.9633 28.343 75.9633C27.7823 75.9633 27.3376 76.1277 27.0089 76.4564C26.6898 76.7754 26.5303 77.2153 26.5303 77.776H24.9642C24.9835 77.1186 25.1333 76.553 25.4137 76.0793C25.6941 75.5959 26.0856 75.2237 26.5883 74.9627C27.091 74.7017 27.6808 74.5712 28.3575 74.5712C29.0052 74.5712 29.5708 74.6968 30.0542 74.9482C30.5376 75.1996 30.9098 75.5524 31.1708 76.0068C31.4318 76.4612 31.5623 76.9977 31.5623 77.6165C31.5623 78.2449 31.398 78.8588 31.0693 79.4582C30.7503 80.0576 30.2234 80.7246 29.4886 81.4594L27.0959 83.8811H31.7219V85.3023H25.2542ZM36.9367 85.4473C36.2697 85.4473 35.6896 85.3216 35.1966 85.0703C34.7035 84.8189 34.3216 84.466 34.0509 84.0116C33.7899 83.5476 33.6594 83.011 33.6594 82.402H35.2256C35.2256 82.9337 35.3754 83.3494 35.6751 83.6491C35.9845 83.9488 36.4098 84.0987 36.9512 84.0987C37.5023 84.0987 37.9277 83.944 38.2274 83.6346C38.5271 83.3252 38.6769 82.9144 38.6769 82.402V81.6189C38.6769 81.0775 38.5271 80.6618 38.2274 80.3718C37.9277 80.0721 37.5023 79.9222 36.9512 79.9222H35.8201V78.4431L38.2854 76.0938H34.1089V74.7162H39.8805V76.1953L36.9657 78.9361V78.5591C37.9712 78.5591 38.7688 78.8346 39.3585 79.3857C39.9482 79.9367 40.2431 80.6763 40.2431 81.6044V82.402C40.2431 83.011 40.1077 83.5476 39.837 84.0116C39.5663 84.466 39.1796 84.8189 38.6769 85.0703C38.1839 85.3216 37.6038 85.4473 36.9367 85.4473ZM47.2126 85.3023V83.098H42.4706V80.7488L46.5891 74.7162H48.3293L43.9788 81.1258V81.6914H47.2126V79.2116H48.7643V85.3023H47.2126Z" fill="white"/>
<path d="M63.1891 85.3023V83.9101H66.0024V76.0793L63.1746 78.182V76.4854L65.5964 74.7162H67.5686V83.9101H69.8453V85.3023H63.1891ZM71.8554 85.3023V83.7506L75.1327 80.3718C75.6354 79.8497 76.0028 79.3808 76.2348 78.9651C76.4765 78.5397 76.5974 78.1192 76.5974 77.7035C76.5974 77.1621 76.4475 76.7367 76.1478 76.4274C75.8578 76.118 75.4566 75.9633 74.9442 75.9633C74.3835 75.9633 73.9388 76.1277 73.6101 76.4564C73.291 76.7754 73.1315 77.2153 73.1315 77.776H71.5653C71.5847 77.1186 71.7345 76.553 72.0149 76.0793C72.2953 75.5959 72.6868 75.2237 73.1895 74.9627C73.6922 74.7017 74.282 74.5712 74.9587 74.5712C75.6064 74.5712 76.172 74.6968 76.6554 74.9482C77.1388 75.1996 77.511 75.5524 77.772 76.0068C78.033 76.4612 78.1635 76.9977 78.1635 77.6165C78.1635 78.2449 77.9992 78.8588 77.6705 79.4582C77.3515 80.0576 76.8246 80.7246 76.0898 81.4594L73.6971 83.8811H78.3231V85.3023H71.8554ZM83.5379 85.4473C82.8709 85.4473 82.2908 85.3216 81.7978 85.0703C81.3047 84.8189 80.9228 84.466 80.6521 84.0116C80.3911 83.5476 80.2606 83.011 80.2606 82.402H81.8268C81.8268 82.9337 81.9766 83.3494 82.2763 83.6491C82.5857 83.9488 83.011 84.0987 83.5524 84.0987C84.1035 84.0987 84.5289 83.944 84.8286 83.6346C85.1283 83.3252 85.2781 82.9144 85.2781 82.402V81.6189C85.2781 81.0775 85.1283 80.6618 84.8286 80.3718C84.5289 80.0721 84.1035 79.9222 83.5524 79.9222H82.4213V78.4431L84.8866 76.0938H80.7101V74.7162H86.4817V76.1953L83.5669 78.9361V78.5591C84.5724 78.5591 85.37 78.8346 85.9597 79.3857C86.5494 79.9367 86.8443 80.6763 86.8443 81.6044V82.402C86.8443 83.011 86.7089 83.5476 86.4382 84.0116C86.1675 84.466 85.7808 84.8189 85.2781 85.0703C84.7851 85.3216 84.205 85.4473 83.5379 85.4473ZM93.8138 85.3023V83.098H89.0718V80.7488L93.1903 74.7162H94.9305L90.58 81.1258V81.6914H93.8138V79.2116H95.3655V85.3023H93.8138Z" fill="white"/>
<path d="M109.79 85.3023V83.9101H112.604V76.0793L109.776 78.182V76.4854L112.198 74.7162H114.17V83.9101H116.447V85.3023H109.79ZM118.457 85.3023V83.7506L121.734 80.3718C122.237 79.8497 122.604 79.3808 122.836 78.9651C123.078 78.5397 123.199 78.1192 123.199 77.7035C123.199 77.1621 123.049 76.7367 122.749 76.4274C122.459 76.118 122.058 75.9633 121.545 75.9633C120.985 75.9633 120.54 76.1277 120.211 76.4564C119.892 76.7754 119.733 77.2153 119.733 77.776H118.167C118.186 77.1186 118.336 76.553 118.616 76.0793C118.896 75.5959 119.288 75.2237 119.791 74.9627C120.293 74.7017 120.883 74.5712 121.56 74.5712C122.208 74.5712 122.773 74.6968 123.257 74.9482C123.74 75.1996 124.112 75.5524 124.373 76.0068C124.634 76.4612 124.765 76.9977 124.765 77.6165C124.765 78.2449 124.6 78.8588 124.272 79.4582C123.953 80.0576 123.426 80.7246 122.691 81.4594L120.298 83.8811H124.924V85.3023H118.457ZM130.139 85.4473C129.472 85.4473 128.892 85.3216 128.399 85.0703C127.906 84.8189 127.524 84.466 127.253 84.0116C126.992 83.5476 126.862 83.011 126.862 82.402H128.428C128.428 82.9337 128.578 83.3494 128.877 83.6491C129.187 83.9488 129.612 84.0987 130.154 84.0987C130.705 84.0987 131.13 83.944 131.43 83.6346C131.729 83.3252 131.879 82.9144 131.879 82.402V81.6189C131.879 81.0775 131.729 80.6618 131.43 80.3718C131.13 80.0721 130.705 79.9222 130.154 79.9222H129.023V78.4431L131.488 76.0938H127.311V74.7162H133.083V76.1953L130.168 78.9361V78.5591C131.174 78.5591 131.971 78.8346 132.561 79.3857C133.151 79.9367 133.445 80.6763 133.445 81.6044V82.402C133.445 83.011 133.31 83.5476 133.039 84.0116C132.769 84.466 132.382 84.8189 131.879 85.0703C131.386 85.3216 130.806 85.4473 130.139 85.4473ZM140.415 85.3023V83.098H135.673V80.7488L139.791 74.7162H141.532L137.181 81.1258V81.6914H140.415V79.2116H141.967V85.3023H140.415Z" fill="white"/>
<path d="M156.392 85.3023V83.9101H159.205V76.0793L156.377 78.182V76.4854L158.799 74.7162H160.771V83.9101H163.048V85.3023H156.392ZM165.058 85.3023V83.7506L168.335 80.3718C168.838 79.8497 169.205 79.3808 169.437 78.9651C169.679 78.5397 169.8 78.1192 169.8 77.7035C169.8 77.1621 169.65 76.7367 169.35 76.4274C169.06 76.118 168.659 75.9633 168.147 75.9633C167.586 75.9633 167.141 76.1277 166.813 76.4564C166.494 76.7754 166.334 77.2153 166.334 77.776H164.768C164.787 77.1186 164.937 76.553 165.217 76.0793C165.498 75.5959 165.889 75.2237 166.392 74.9627C166.895 74.7017 167.484 74.5712 168.161 74.5712C168.809 74.5712 169.375 74.6968 169.858 74.9482C170.341 75.1996 170.713 75.5524 170.975 76.0068C171.236 76.4612 171.366 76.9977 171.366 77.6165C171.366 78.2449 171.202 78.8588 170.873 79.4582C170.554 80.0576 170.027 80.7246 169.292 81.4594L166.9 83.8811H171.526V85.3023H165.058ZM176.74 85.4473C176.073 85.4473 175.493 85.3216 175 85.0703C174.507 84.8189 174.125 84.466 173.855 84.0116C173.594 83.5476 173.463 83.011 173.463 82.402H175.029C175.029 82.9337 175.179 83.3494 175.479 83.6491C175.788 83.9488 176.214 84.0987 176.755 84.0987C177.306 84.0987 177.731 83.944 178.031 83.6346C178.331 83.3252 178.481 82.9144 178.481 82.402V81.6189C178.481 81.0775 178.331 80.6618 178.031 80.3718C177.731 80.0721 177.306 79.9222 176.755 79.9222H175.624V78.4431L178.089 76.0938H173.913V74.7162H179.684V76.1953L176.769 78.9361V78.5591C177.775 78.5591 178.572 78.8346 179.162 79.3857C179.752 79.9367 180.047 80.6763 180.047 81.6044V82.402C180.047 83.011 179.911 83.5476 179.641 84.0116C179.37 84.466 178.983 84.8189 178.481 85.0703C177.988 85.3216 177.408 85.4473 176.74 85.4473ZM187.016 85.3023V83.098H182.274V80.7488L186.393 74.7162H188.133L183.783 81.1258V81.6914H187.016V79.2116H188.568V85.3023H187.016Z" fill="white"/>
<path d="M18.3335 119.106V111.786H16.0713V110.625H21.8487V111.786H19.5865V119.106H18.3335ZM23.5727 119.106V117.992H25.2781V111.751H23.5727V110.637H28.2596V111.751H26.5543V117.992H28.2596V119.106H23.5727ZM30.3549 119.106V110.637H32.7216C33.2784 110.637 33.7618 110.745 34.1717 110.962C34.5816 111.171 34.8987 111.468 35.123 111.855C35.355 112.242 35.4711 112.698 35.4711 113.224V116.507C35.4711 117.025 35.355 117.482 35.123 117.876C34.8987 118.271 34.5816 118.576 34.1717 118.793C33.7618 119.002 33.2784 119.106 32.7216 119.106H30.3549ZM31.6079 117.969H32.7216C33.1856 117.969 33.5491 117.841 33.8121 117.586C34.0828 117.323 34.2181 116.964 34.2181 116.507V113.224C34.2181 112.776 34.0828 112.424 33.8121 112.168C33.5491 111.905 33.1856 111.774 32.7216 111.774H31.6079V117.969ZM37.4387 119.106V110.637H42.4156V111.751H38.6685V114.152H42.0096V115.254H38.6685V117.992H42.4156V119.106H37.4387ZM53.7874 119.222C53.2615 119.222 52.8013 119.125 52.4068 118.932C52.0201 118.731 51.7185 118.445 51.5019 118.073C51.2931 117.694 51.1887 117.254 51.1887 116.751V112.992C51.1887 112.482 51.2931 112.041 51.5019 111.67C51.7185 111.298 52.0201 111.016 52.4068 110.823C52.8013 110.622 53.2615 110.521 53.7874 110.521C54.3133 110.521 54.7696 110.622 55.1563 110.823C55.543 111.024 55.8408 111.31 56.0496 111.681C56.2662 112.045 56.3744 112.482 56.3744 112.992H55.1215C55.1215 112.551 55.0055 112.215 54.7735 111.983C54.5415 111.751 54.2128 111.635 53.7874 111.635C53.362 111.635 53.0294 111.751 52.7897 111.983C52.5576 112.215 52.4416 112.547 52.4416 112.981V116.751C52.4416 117.184 52.5576 117.52 52.7897 117.76C53.0294 117.992 53.362 118.108 53.7874 118.108C54.2128 118.108 54.5415 117.992 54.7735 117.76C55.0055 117.52 55.1215 117.184 55.1215 116.751H56.3744C56.3744 117.254 56.2662 117.691 56.0496 118.062C55.8408 118.433 55.543 118.719 55.1563 118.92C54.7696 119.121 54.3133 119.222 53.7874 119.222ZM57.7156 119.106L59.8735 110.637H61.5208L63.6787 119.106H62.4141L61.9037 116.96H59.5022L58.9918 119.106H57.7156ZM59.7343 115.927H61.6601L61.08 113.479C60.9795 113.046 60.8944 112.671 60.8248 112.354C60.7629 112.029 60.7204 111.809 60.6972 111.693C60.674 111.809 60.6314 112.029 60.5695 112.354C60.5077 112.671 60.4226 113.042 60.3143 113.468L59.7343 115.927ZM65.1475 119.106V110.637H67.8042C68.3378 110.637 68.8019 110.741 69.1963 110.95C69.5908 111.151 69.8963 111.438 70.1128 111.809C70.3371 112.18 70.4492 112.617 70.4492 113.12C70.4492 113.684 70.3023 114.175 70.0084 114.593C69.7222 115.003 69.3317 115.293 68.8367 115.463L70.5653 119.106H69.1383L67.5953 115.626H66.4004V119.106H65.1475ZM66.4004 114.523H67.8042C68.2218 114.523 68.5544 114.4 68.8019 114.152C69.0494 113.897 69.1731 113.561 69.1731 113.143C69.1731 112.71 69.0494 112.37 68.8019 112.122C68.5544 111.875 68.2218 111.751 67.8042 111.751H66.4004V114.523ZM72.0921 119.106V110.637H74.4587C75.0156 110.637 75.499 110.745 75.9089 110.962C76.3188 111.171 76.6359 111.468 76.8602 111.855C77.0922 112.242 77.2082 112.698 77.2082 113.224V116.507C77.2082 117.025 77.0922 117.482 76.8602 117.876C76.6359 118.271 76.3188 118.576 75.9089 118.793C75.499 119.002 75.0156 119.106 74.4587 119.106H72.0921ZM73.345 117.969H74.4587C74.9228 117.969 75.2863 117.841 75.5492 117.586C75.8199 117.323 75.9553 116.964 75.9553 116.507V113.224C75.9553 112.776 75.8199 112.424 75.5492 112.168C75.2863 111.905 74.9228 111.774 74.4587 111.774H73.345V117.969ZM81.5657 119.222C81.0398 119.222 80.5835 119.125 80.1968 118.932C79.8178 118.731 79.5239 118.445 79.3151 118.073C79.114 117.694 79.0135 117.254 79.0135 116.751V112.992C79.0135 112.482 79.114 112.041 79.3151 111.67C79.5239 111.298 79.8178 111.016 80.1968 110.823C80.5835 110.622 81.0398 110.521 81.5657 110.521C82.0917 110.521 82.5441 110.622 82.9231 110.823C83.3098 111.016 83.6037 111.298 83.8048 111.67C84.0136 112.041 84.118 112.478 84.118 112.981V116.751C84.118 117.254 84.0136 117.694 83.8048 118.073C83.6037 118.445 83.3098 118.731 82.9231 118.932C82.5441 119.125 82.0917 119.222 81.5657 119.222ZM81.5657 118.108C81.9911 118.108 82.3121 117.992 82.5286 117.76C82.7529 117.52 82.8651 117.184 82.8651 116.751V112.992C82.8651 112.551 82.7529 112.215 82.5286 111.983C82.3121 111.751 81.9911 111.635 81.5657 111.635C81.1481 111.635 80.8271 111.751 80.6028 111.983C80.3785 112.215 80.2664 112.551 80.2664 112.992V116.751C80.2664 117.184 80.3785 117.52 80.6028 117.76C80.8271 117.992 81.1481 118.108 81.5657 118.108ZM88.5567 119.222C87.9844 119.222 87.4933 119.129 87.0834 118.944C86.6735 118.75 86.3564 118.479 86.1321 118.131C85.9078 117.776 85.7957 117.354 85.7957 116.867H87.037C87.037 117.254 87.1723 117.559 87.443 117.783C87.7137 118 88.0888 118.108 88.5683 118.108C89.0169 118.108 89.3688 118 89.6241 117.783C89.8793 117.567 90.0069 117.269 90.0069 116.89C90.0069 116.573 89.9179 116.298 89.7401 116.066C89.5699 115.834 89.3224 115.676 88.9976 115.591L87.9303 115.278C87.3115 115.1 86.832 114.798 86.4917 114.373C86.1592 113.94 85.9929 113.425 85.9929 112.83C85.9929 112.366 86.0973 111.96 86.3061 111.612C86.5149 111.264 86.8127 110.993 87.1994 110.799C87.5861 110.606 88.0424 110.509 88.5683 110.509C89.3418 110.509 89.9605 110.718 90.4245 111.136C90.8963 111.554 91.1361 112.114 91.1438 112.818H89.8909C89.8909 112.447 89.771 112.157 89.5312 111.948C89.2992 111.731 88.9705 111.623 88.5451 111.623C88.1352 111.623 87.8143 111.724 87.5822 111.925C87.3502 112.118 87.2342 112.393 87.2342 112.748C87.2342 113.066 87.3193 113.34 87.4894 113.572C87.6673 113.804 87.9187 113.967 88.2435 114.059L89.3224 114.384C89.9412 114.554 90.4168 114.856 90.7494 115.289C91.0819 115.722 91.2482 116.24 91.2482 116.844C91.2482 117.316 91.1361 117.733 90.9118 118.097C90.6875 118.452 90.3743 118.731 89.9721 118.932C89.5699 119.125 89.0981 119.222 88.5567 119.222ZM95.4781 119.222C94.9522 119.222 94.4959 119.125 94.1092 118.932C93.7302 118.731 93.4363 118.445 93.2275 118.073C93.0264 117.694 92.9259 117.254 92.9259 116.751V112.992C92.9259 112.482 93.0264 112.041 93.2275 111.67C93.4363 111.298 93.7302 111.016 94.1092 110.823C94.4959 110.622 94.9522 110.521 95.4781 110.521C96.004 110.521 96.4565 110.622 96.8355 110.823C97.2222 111.016 97.5161 111.298 97.7172 111.67C97.926 112.041 98.0304 112.478 98.0304 112.981V116.751C98.0304 117.254 97.926 117.694 97.7172 118.073C97.5161 118.445 97.2222 118.731 96.8355 118.932C96.4565 119.125 96.004 119.222 95.4781 119.222ZM95.4781 118.108C95.9035 118.108 96.2245 117.992 96.441 117.76C96.6653 117.52 96.7775 117.184 96.7775 116.751V112.992C96.7775 112.551 96.6653 112.215 96.441 111.983C96.2245 111.751 95.9035 111.635 95.4781 111.635C95.0605 111.635 94.7395 111.751 94.5152 111.983C94.2909 112.215 94.1788 112.551 94.1788 112.992V116.751C94.1788 117.184 94.2909 117.52 94.5152 117.76C94.7395 117.992 95.0605 118.108 95.4781 118.108Z" fill="white"/>
<path d="M134.418 111.606L133.362 108.416H134L134.655 110.457C134.698 110.577 134.735 110.699 134.766 110.823C134.801 110.943 134.826 111.037 134.841 111.107C134.86 111.037 134.886 110.943 134.917 110.823C134.951 110.699 134.986 110.577 135.021 110.457L135.665 108.416H136.297L135.241 111.606H134.418ZM137.989 111.664C137.656 111.664 137.393 111.579 137.2 111.409C137.01 111.235 136.915 110.999 136.915 110.701C136.915 110.399 137.016 110.164 137.217 109.993C137.422 109.819 137.702 109.732 138.058 109.732H138.946V109.437C138.946 109.263 138.892 109.127 138.783 109.03C138.675 108.934 138.522 108.885 138.325 108.885C138.151 108.885 138.006 108.924 137.89 109.001C137.774 109.075 137.706 109.174 137.687 109.297H137.072C137.107 109.011 137.238 108.783 137.467 108.613C137.699 108.443 137.991 108.358 138.342 108.358C138.721 108.358 139.021 108.454 139.241 108.648C139.462 108.837 139.572 109.096 139.572 109.425V111.606H138.963V111.02H138.859L138.963 110.904C138.963 111.136 138.874 111.322 138.696 111.461C138.518 111.596 138.282 111.664 137.989 111.664ZM138.174 111.183C138.398 111.183 138.582 111.126 138.725 111.014C138.872 110.898 138.946 110.751 138.946 110.573V110.156H138.07C137.907 110.156 137.778 110.2 137.681 110.289C137.588 110.378 137.542 110.5 137.542 110.655C137.542 110.817 137.598 110.947 137.71 111.043C137.822 111.136 137.977 111.183 138.174 111.183ZM142.244 111.606C142.047 111.606 141.875 111.567 141.728 111.49C141.581 111.409 141.465 111.295 141.38 111.148C141.298 111.001 141.258 110.831 141.258 110.637V107.94H140.214V107.372H141.884V110.637C141.884 110.761 141.919 110.86 141.989 110.933C142.058 111.003 142.153 111.037 142.273 111.037H143.259V111.606H142.244ZM143.993 111.606V111.037H145.113V108.984H144.138V108.416H145.722V111.037H146.749V111.606H143.993ZM145.357 107.865C145.221 107.865 145.113 107.83 145.032 107.76C144.951 107.687 144.91 107.59 144.91 107.47C144.91 107.346 144.951 107.25 145.032 107.18C145.113 107.107 145.221 107.07 145.357 107.07C145.492 107.07 145.6 107.107 145.681 107.18C145.763 107.25 145.803 107.346 145.803 107.47C145.803 107.59 145.763 107.687 145.681 107.76C145.6 107.83 145.492 107.865 145.357 107.865ZM148.516 111.664C148.195 111.664 147.938 111.556 147.744 111.339C147.551 111.123 147.454 110.831 147.454 110.463V109.564C147.454 109.193 147.551 108.899 147.744 108.682C147.938 108.466 148.195 108.358 148.516 108.358C148.779 108.358 148.987 108.431 149.142 108.578C149.297 108.721 149.374 108.918 149.374 109.17L149.241 109.025H149.386L149.368 108.282V107.372H149.995V111.606H149.374V110.997H149.241L149.374 110.852C149.374 111.103 149.297 111.302 149.142 111.449C148.987 111.592 148.779 111.664 148.516 111.664ZM148.73 111.119C148.928 111.119 149.082 111.059 149.194 110.939C149.31 110.815 149.368 110.645 149.368 110.428V109.593C149.368 109.377 149.31 109.208 149.194 109.088C149.082 108.965 148.928 108.903 148.73 108.903C148.525 108.903 148.365 108.963 148.249 109.083C148.133 109.199 148.075 109.369 148.075 109.593V110.428C148.075 110.653 148.133 110.825 148.249 110.945C148.365 111.061 148.525 111.119 148.73 111.119ZM151.901 111.664C151.568 111.664 151.305 111.579 151.112 111.409C150.923 111.235 150.828 110.999 150.828 110.701C150.828 110.399 150.928 110.164 151.129 109.993C151.334 109.819 151.615 109.732 151.971 109.732H152.858V109.437C152.858 109.263 152.804 109.127 152.696 109.03C152.587 108.934 152.435 108.885 152.237 108.885C152.063 108.885 151.918 108.924 151.802 109.001C151.686 109.075 151.619 109.174 151.599 109.297H150.984C151.019 109.011 151.151 108.783 151.379 108.613C151.611 108.443 151.903 108.358 152.255 108.358C152.634 108.358 152.933 108.454 153.154 108.648C153.374 108.837 153.485 109.096 153.485 109.425V111.606H152.875V111.02H152.771L152.875 110.904C152.875 111.136 152.787 111.322 152.609 111.461C152.431 111.596 152.195 111.664 151.901 111.664ZM152.087 111.183C152.311 111.183 152.495 111.126 152.638 111.014C152.785 110.898 152.858 110.751 152.858 110.573V110.156H151.982C151.82 110.156 151.69 110.2 151.594 110.289C151.501 110.378 151.454 110.5 151.454 110.655C151.454 110.817 151.51 110.947 151.623 111.043C151.735 111.136 151.889 111.183 152.087 111.183ZM155.472 111.664C155.151 111.664 154.894 111.556 154.7 111.339C154.507 111.123 154.41 110.831 154.41 110.463V109.564C154.41 109.193 154.507 108.899 154.7 108.682C154.894 108.466 155.151 108.358 155.472 108.358C155.735 108.358 155.944 108.431 156.098 108.578C156.253 108.721 156.33 108.918 156.33 109.17L156.197 109.025H156.342L156.325 108.282V107.372H156.951V111.606H156.33V110.997H156.197L156.33 110.852C156.33 111.103 156.253 111.302 156.098 111.449C155.944 111.592 155.735 111.664 155.472 111.664ZM155.686 111.119C155.884 111.119 156.038 111.059 156.151 110.939C156.267 110.815 156.325 110.645 156.325 110.428V109.593C156.325 109.377 156.267 109.208 156.151 109.088C156.038 108.965 155.884 108.903 155.686 108.903C155.482 108.903 155.321 108.963 155.205 109.083C155.089 109.199 155.031 109.369 155.031 109.593V110.428C155.031 110.653 155.089 110.825 155.205 110.945C155.321 111.061 155.482 111.119 155.686 111.119ZM159.176 111.664C158.917 111.664 158.689 111.614 158.492 111.513C158.298 111.409 158.149 111.264 158.045 111.078C157.941 110.892 157.888 110.676 157.888 110.428V109.593C157.888 109.342 157.941 109.125 158.045 108.943C158.149 108.758 158.298 108.615 158.492 108.514C158.689 108.41 158.917 108.358 159.176 108.358C159.439 108.358 159.667 108.41 159.861 108.514C160.054 108.615 160.203 108.758 160.307 108.943C160.412 109.125 160.464 109.342 160.464 109.593V110.162H158.492V110.428C158.492 110.664 158.55 110.844 158.666 110.968C158.786 111.092 158.958 111.154 159.182 111.154C159.364 111.154 159.511 111.123 159.623 111.061C159.735 110.995 159.805 110.9 159.832 110.776H160.452C160.406 111.047 160.267 111.264 160.035 111.426C159.803 111.585 159.516 111.664 159.176 111.664ZM159.861 109.785V109.587C159.861 109.355 159.803 109.176 159.687 109.048C159.571 108.92 159.4 108.856 159.176 108.856C158.956 108.856 158.786 108.92 158.666 109.048C158.55 109.176 158.492 109.357 158.492 109.593V109.738L159.907 109.732L159.861 109.785Z" fill="white"/>
<path d="M134.216 122.606V121.771H135.904V117.072L134.207 118.334V117.316L135.66 116.254H136.843V121.771H138.21V122.606H134.216ZM139.416 122.606V121.675L141.382 119.648C141.684 119.334 141.904 119.053 142.043 118.804C142.188 118.548 142.261 118.296 142.261 118.047C142.261 117.722 142.171 117.467 141.991 117.281C141.817 117.095 141.576 117.003 141.269 117.003C140.932 117.003 140.666 117.101 140.468 117.298C140.277 117.49 140.181 117.754 140.181 118.09H139.242C139.253 117.696 139.343 117.356 139.511 117.072C139.679 116.782 139.914 116.559 140.216 116.402C140.518 116.246 140.872 116.167 141.278 116.167C141.666 116.167 142.006 116.243 142.296 116.394C142.586 116.544 142.809 116.756 142.966 117.029C143.122 117.301 143.2 117.623 143.2 117.994C143.2 118.372 143.102 118.74 142.905 119.099C142.713 119.459 142.397 119.859 141.956 120.3L140.521 121.753H143.296V122.606H139.416ZM144.485 123.563L147.548 115.384H148.522L145.459 123.563H144.485ZM151.642 122.693C151.242 122.693 150.894 122.618 150.598 122.467C150.302 122.316 150.073 122.104 149.911 121.832C149.754 121.553 149.676 121.231 149.676 120.866H150.616C150.616 121.185 150.705 121.434 150.885 121.614C151.071 121.794 151.326 121.884 151.651 121.884C151.982 121.884 152.237 121.791 152.417 121.605C152.596 121.42 152.686 121.173 152.686 120.866V120.396C152.686 120.071 152.596 119.822 152.417 119.648C152.237 119.468 151.982 119.378 151.651 119.378H150.972V118.49L152.451 117.081H149.946V116.254H153.409V117.142L151.66 118.786V118.56C152.263 118.56 152.741 118.725 153.095 119.056C153.449 119.387 153.626 119.83 153.626 120.387V120.866C153.626 121.231 153.545 121.553 153.382 121.832C153.22 122.104 152.988 122.316 152.686 122.467C152.391 122.618 152.042 122.693 151.642 122.693ZM155.067 122.606V121.675L157.033 119.648C157.335 119.334 157.555 119.053 157.695 118.804C157.84 118.548 157.912 118.296 157.912 118.047C157.912 117.722 157.822 117.467 157.642 117.281C157.468 117.095 157.228 117.003 156.92 117.003C156.584 117.003 156.317 117.101 156.12 117.298C155.928 117.49 155.833 117.754 155.833 118.09H154.893C154.905 117.696 154.994 117.356 155.163 117.072C155.331 116.782 155.566 116.559 155.867 116.402C156.169 116.246 156.523 116.167 156.929 116.167C157.318 116.167 157.657 116.243 157.947 116.394C158.237 116.544 158.46 116.756 158.617 117.029C158.774 117.301 158.852 117.623 158.852 117.994C158.852 118.372 158.753 118.74 158.556 119.099C158.365 119.459 158.049 119.859 157.608 120.3L156.172 121.753H158.948V122.606H155.067Z" fill="white"/>
<circle cx="203.487" cy="115.106" r="8.70091" fill="#E5031B"/>
<circle cx="216.062" cy="115.106" r="8.70091" fill="#DC9E3F"/>
<circle cx="203.487" cy="115.106" r="8.70091" fill="#E5031B"/>
<g style="mix-blend-mode:hard-light">
<circle cx="216.062" cy="115.106" r="8.70091" fill="#DC9E3F"/>
</g>
<defs>
<linearGradient id="paint0_linear_26_14127" x1="235.374" y1="0.133158" x2="32.4894" y2="136.829" gradientUnits="userSpaceOnUse">
<stop stop-color="#1BC681"/>
<stop offset="1" stop-color="#0D603F"/>
</linearGradient>
</defs>
</svg>
