<svg width="20" height="20" viewBox="0 0 20 20" fill="none" xmlns="http://www.w3.org/2000/svg">
<path d="M7.13393 9.91984C7.62209 10.408 7.62209 11.1994 7.13393 11.6876L6.32154 12.5H13.3334C14.0237 12.5 14.5834 13.0597 14.5834 13.75C14.5834 14.4403 14.0237 15 13.3334 15H6.32154L7.13393 15.8124C7.62209 16.3006 7.62209 17.092 7.13393 17.5802C6.64578 18.0683 5.85432 18.0683 5.36617 17.5802L2.41989 14.6338C1.93173 14.1458 1.93173 13.3543 2.41989 12.8661L5.36617 9.91984C5.85432 9.43167 6.64578 9.43167 7.13393 9.91984ZM12.8661 2.41983C13.3238 1.96218 14.0479 1.93358 14.5389 2.33402L14.6339 2.41983L17.5801 5.3661C18.0378 5.82375 18.0664 6.54797 17.6659 7.03893L17.5801 7.13387L14.6339 10.0802C14.1457 10.5683 13.3543 10.5683 12.8661 10.0802C12.4085 9.62251 12.3798 8.89825 12.7803 8.40734L12.8661 8.31241L13.6784 7.49999H6.66661C5.97625 7.49999 5.41661 6.94035 5.41661 6.24999C5.41661 5.60024 5.91234 5.06628 6.54622 5.00571L6.66661 4.99999H13.6784L12.8661 4.1876C12.3779 3.69944 12.3779 2.90798 12.8661 2.41983Z" fill="#484848"/>
</svg>
