<svg width="20" height="20" viewBox="0 0 20 20" fill="none" xmlns="http://www.w3.org/2000/svg">
<path fill-rule="evenodd" clip-rule="evenodd" d="M4.00154 9.00538C4.00154 7.67828 4.52873 6.40553 5.46713 5.46713C6.40553 4.52873 7.67828 4.00154 9.00538 4.00154C10.3325 4.00154 11.6052 4.52873 12.5436 5.46713C13.482 6.40553 14.0092 7.67828 14.0092 9.00538C14.0092 10.3325 13.482 11.6052 12.5436 12.5436C11.6052 13.482 10.3325 14.0092 9.00538 14.0092C7.67828 14.0092 6.40553 13.482 5.46713 12.5436C4.52873 11.6052 4.00154 10.3325 4.00154 9.00538ZM9.00538 2C7.89536 2 6.80124 2.26378 5.81316 2.76959C4.82509 3.2754 3.97136 4.00877 3.32232 4.90926C2.67328 5.80975 2.24752 6.85159 2.08012 7.94891C1.91272 9.04623 2.00848 10.1676 2.35949 11.2207C2.71051 12.2737 3.30674 13.2283 4.09906 14.0057C4.89137 14.7831 5.85708 15.3611 6.9166 15.6921C7.97613 16.0231 9.09914 16.0975 10.1931 15.9093C11.287 15.7211 12.3206 15.2757 13.2086 14.6097C13.2371 14.6475 13.2682 14.6833 13.3017 14.7168L16.304 17.7191C16.4927 17.9014 16.7455 18.0022 17.0079 18C17.2703 17.9977 17.5213 17.8924 17.7069 17.7069C17.8924 17.5213 17.9977 17.2703 18 17.0079C18.0022 16.7455 17.9014 16.4927 17.7191 16.304L14.7168 13.3017C14.6833 13.2682 14.6475 13.2371 14.6097 13.2086C15.3903 12.1678 15.8656 10.9302 15.9825 9.6345C16.0993 8.33878 15.853 7.03611 15.2712 5.87248C14.6894 4.70884 13.795 3.73021 12.6883 3.04625C11.5816 2.36228 10.3064 2 9.00538 2Z" fill="white"/>
</svg>
