<svg width="20" height="20" viewBox="0 0 20 20" fill="none" xmlns="http://www.w3.org/2000/svg">
<path fill-rule="evenodd" clip-rule="evenodd" d="M4.84059 7.15942C4.84059 4.30995 7.15054 2 10 2C12.8495 2 15.1594 4.30995 15.1594 7.15942V7.79711C15.1594 9.32793 15.3673 10.685 15.6841 11.6353C15.8437 12.1141 16.0183 12.4513 16.1785 12.6546C16.2972 12.8051 16.368 12.8355 16.3842 12.8406C16.765 12.8446 17.0725 13.1545 17.0725 13.5362V13.6812C17.0725 14.0654 16.761 14.3768 16.3768 14.3768H3.6232C3.239 14.3768 2.92755 14.0654 2.92755 13.6812V13.5362C2.92755 13.1545 3.23504 12.8446 3.61584 12.8406C3.63208 12.8355 3.70286 12.8051 3.82147 12.6546C3.98168 12.4513 4.15638 12.1141 4.31598 11.6353C4.63273 10.685 4.84059 9.32793 4.84059 7.79711V7.15942ZM3.61224 12.8415L3.61412 12.8411L3.61302 12.8414L3.61224 12.8415Z" fill="#484848"/>
<path d="M8.08694 15.5652C7.8243 15.5652 7.58405 15.7131 7.46579 15.9476C7.34753 16.1822 7.37144 16.4633 7.52759 16.6744C8.10645 17.4573 8.9809 18 9.99996 18C11.019 18 11.8935 17.4573 12.4724 16.6744C12.6286 16.4633 12.6524 16.1822 12.5342 15.9476C12.4159 15.7131 12.1757 15.5652 11.913 15.5652H8.08694Z" fill="#484848"/>
</svg>
