<svg width="20" height="20" viewBox="0 0 20 20" fill="none" xmlns="http://www.w3.org/2000/svg">
<path d="M17.1758 13.264C16.9838 15.3999 15.4399 16.7999 13.1999 16.7999H5.99996C3.79198 16.7999 2 15.0079 2 12.8V7.20003C2 5.02405 3.31199 3.50407 5.35196 3.24807C5.55996 3.21607 5.77596 3.20007 5.99996 3.20007H13.1999C13.4079 3.20007 13.6079 3.20807 13.7999 3.24007C15.7119 3.46407 17.0078 4.80006 17.1758 6.73603C17.1998 6.96803 17.0078 7.16003 16.7758 7.16003H15.5359C14.7679 7.16003 14.0559 7.45603 13.5439 7.98402C12.9359 8.57601 12.6319 9.40801 12.7039 10.24C12.8319 11.696 14.1119 12.84 15.6319 12.84H16.7758C17.0078 12.84 17.1998 13.032 17.1758 13.264Z" fill="#484848"/>
<path d="M18 9.17541V10.8234C18 11.2634 17.648 11.6234 17.2 11.6394H15.632C14.768 11.6394 13.976 11.0074 13.904 10.1434C13.856 9.63941 14.048 9.16741 14.384 8.83942C14.68 8.53542 15.088 8.35944 15.536 8.35944H17.2C17.648 8.37544 18 8.73542 18 9.17541Z" fill="#484848"/>
</svg>
