<svg width="20" height="20" viewBox="0 0 20 20" fill="none" xmlns="http://www.w3.org/2000/svg">
<path d="M17.716 9.293L10.7077 2.293C10.5122 2.09775 10.2559 2 9.99982 2C9.74377 2 9.48746 2.09775 9.29198 2.293L2.28364 9.293C1.89268 9.6845 1.9122 10.297 2.30317 10.6875C2.69513 11.08 3.26807 11.1378 3.66028 10.746L4.00219 10.4043V17C4.00219 17.5528 4.44997 18 5.00338 18H9.00814V14H11.0105V18H15.0153C15.5687 18 16.0165 17.5528 16.0165 17V10.4238L16.3156 10.7225C16.7065 11.113 17.304 11.078 17.6962 10.6873C18.0874 10.297 18.108 9.6835 17.716 9.293Z" fill="#484848"/>
</svg>
