<svg width="20" height="20" viewBox="0 0 20 20" fill="none" xmlns="http://www.w3.org/2000/svg">
<path fill-rule="evenodd" clip-rule="evenodd" d="M18 10C18 14.4182 14.4182 18 10 18C5.58172 18 2 14.4182 2 10C2 5.58172 5.58172 2 10 2C14.4182 2 18 5.58172 18 10ZM12.4 7.6C12.4 8.92552 11.3255 10 10 10C8.67448 10 7.6 8.92552 7.6 7.6C7.6 6.27452 8.67448 5.2 10 5.2C11.3255 5.2 12.4 6.27452 12.4 7.6ZM10 16.8C11.4272 16.8 12.7518 16.3603 13.8455 15.609C14.3286 15.2771 14.535 14.645 14.2542 14.1306C13.672 13.0642 12.4722 12.4 9.99992 12.4C7.52775 12.4 6.32798 13.0642 5.74571 14.1306C5.46484 14.645 5.67128 15.277 6.15437 15.6089C7.24814 16.3602 8.57272 16.8 10 16.8Z" fill="#484848"/>
</svg>
